# xmcd CD database file
#
# Track frame offsets:
#	150
#	23762
#	47252
#	72623
#	84598
#	102026
#	123424
#	141703
#	161099
#	185970
#	208274
#	225817
#	254463
#	266466
#
# Disc length: 3751 seconds
#
# Revision: 0
# Processed by: cddbd v1.5.2PL0 Copyright (c) Steve Scherf et al.
# Submitted via: CDex 1.70beta2
#
DISCID=c90ea50e
DTITLE=Earl Klugh - The Spice of Life
DYEAR=2008
DGENRE=Jazz
TTITLE0=Ocean Blue
TTITLE1=Sleepy Head
TTITLE2=Canadian Sunset
TTITLE3=Venezuelan Nights
TTITLE4=Driftin'
TTITLE5=Snap
TTITLE6=Bye Ya
TTITLE7=Heart of my Life
TTITLE8=Morning in Rio
TTITLE9=C'est Si Bon
TTITLE10=Lucy's World
TTITLE11=My Foolish Heart
TTITLE12=The Toy Guitar
TTITLE13=Bye Ya (Live Bonus Track)
EXTD=YEAR: 2008
EXTT0=
EXTT1=
EXTT2=
EXTT3=
EXTT4=
EXTT5=
EXTT6=
EXTT7=
EXTT8=
EXTT9=
EXTT10=
EXTT11=
EXTT12=
EXTT13=
PLAYORDER=
